<svg width="40" height="40" viewBox="0 0 40 40" fill="none" xmlns="http://www.w3.org/2000/svg">
<rect width="40" height="40" rx="20" fill="#17D989"/>
<path d="M8.516 24.62C7.876 24.62 7.28 24.516 6.728 24.308C6.184 24.092 5.708 23.792 5.3 23.408C4.9 23.016 4.588 22.556 4.364 22.028C4.14 21.5 4.028 20.924 4.028 20.3C4.028 19.676 4.14 19.1 4.364 18.572C4.588 18.044 4.904 17.588 5.312 17.204C5.72 16.812 6.196 16.512 6.74 16.304C7.284 16.088 7.88 15.98 8.528 15.98C9.216 15.98 9.844 16.1 10.412 16.34C10.98 16.572 11.46 16.92 11.852 17.384L10.844 18.332C10.54 18.004 10.2 17.76 9.824 17.6C9.448 17.432 9.04 17.348 8.6 17.348C8.16 17.348 7.756 17.42 7.388 17.564C7.028 17.708 6.712 17.912 6.44 18.176C6.176 18.44 5.968 18.752 5.816 19.112C5.672 19.472 5.6 19.868 5.6 20.3C5.6 20.732 5.672 21.128 5.816 21.488C5.968 21.848 6.176 22.16 6.44 22.424C6.712 22.688 7.028 22.892 7.388 23.036C7.756 23.18 8.16 23.252 8.6 23.252C9.04 23.252 9.448 23.172 9.824 23.012C10.2 22.844 10.54 22.592 10.844 22.256L11.852 23.216C11.46 23.672 10.98 24.02 10.412 24.26C9.844 24.5 9.212 24.62 8.516 24.62ZM19.0872 24.62C18.5032 24.62 17.9792 24.524 17.5152 24.332C17.0512 24.14 16.6872 23.876 16.4232 23.54C16.1592 23.204 16.0272 22.816 16.0272 22.376C16.0272 21.976 16.1152 21.616 16.2912 21.296C16.4672 20.976 16.7472 20.672 17.1312 20.384C17.5152 20.088 18.0072 19.792 18.6072 19.496C19.0792 19.264 19.4472 19.06 19.7112 18.884C19.9832 18.708 20.1712 18.54 20.2752 18.38C20.3872 18.22 20.4432 18.052 20.4432 17.876C20.4432 17.636 20.3592 17.444 20.1912 17.3C20.0232 17.148 19.7832 17.072 19.4712 17.072C19.1352 17.072 18.8712 17.156 18.6792 17.324C18.4952 17.484 18.4032 17.696 18.4032 17.96C18.4032 18.096 18.4272 18.228 18.4752 18.356C18.5312 18.484 18.6272 18.628 18.7632 18.788C18.8992 18.948 19.0952 19.152 19.3512 19.4L23.7912 23.66L22.9632 24.632L18.1632 20.024C17.8912 19.76 17.6712 19.516 17.5032 19.292C17.3352 19.068 17.2152 18.852 17.1432 18.644C17.0712 18.428 17.0352 18.208 17.0352 17.984C17.0352 17.592 17.1352 17.248 17.3352 16.952C17.5352 16.648 17.8192 16.416 18.1872 16.256C18.5552 16.088 18.9832 16.004 19.4712 16.004C19.9272 16.004 20.3192 16.08 20.6472 16.232C20.9832 16.376 21.2432 16.588 21.4272 16.868C21.6192 17.14 21.7152 17.468 21.7152 17.852C21.7152 18.188 21.6312 18.5 21.4632 18.788C21.2952 19.068 21.0312 19.336 20.6712 19.592C20.3192 19.848 19.8472 20.116 19.2552 20.396C18.8152 20.612 18.4672 20.816 18.2112 21.008C17.9552 21.2 17.7712 21.392 17.6592 21.584C17.5472 21.776 17.4912 21.988 17.4912 22.22C17.4912 22.452 17.5592 22.656 17.6952 22.832C17.8392 23.008 18.0392 23.148 18.2952 23.252C18.5512 23.348 18.8512 23.396 19.1952 23.396C19.7072 23.396 20.1712 23.284 20.5872 23.06C21.0112 22.828 21.3672 22.484 21.6552 22.028C21.9432 21.572 22.1512 21.008 22.2792 20.336L23.4912 20.732C23.3232 21.54 23.0312 22.236 22.6152 22.82C22.2072 23.396 21.7032 23.84 21.1032 24.152C20.5032 24.464 19.8312 24.62 19.0872 24.62ZM27.2642 24.5L31.0442 16.1H32.5802L36.3722 24.5H34.7402L31.4882 16.928H32.1122L28.8722 24.5H27.2642ZM29.0042 22.556L29.4242 21.332H33.9602L34.3802 22.556H29.0042Z" fill="#F0F0F0"/>
</svg>
