<svg width="228" height="40" viewBox="0 0 228 40" fill="none" xmlns="http://www.w3.org/2000/svg">
<path d="M53.524 17.108C52.576 17.108 51.7 16.952 50.896 16.64C50.092 16.316 49.396 15.866 48.808 15.29C48.22 14.714 47.758 14.036 47.422 13.256C47.098 12.476 46.936 11.624 46.936 10.7C46.936 9.776 47.098 8.924 47.422 8.144C47.758 7.364 48.22 6.686 48.808 6.11C49.408 5.534 50.11 5.09 50.914 4.778C51.718 4.454 52.594 4.292 53.542 4.292C54.454 4.292 55.312 4.448 56.116 4.76C56.92 5.06 57.598 5.516 58.15 6.128L57.304 6.974C56.788 6.446 56.218 6.068 55.594 5.84C54.97 5.6 54.298 5.48 53.578 5.48C52.822 5.48 52.12 5.612 51.472 5.876C50.824 6.128 50.26 6.494 49.78 6.974C49.3 7.442 48.922 7.994 48.646 8.63C48.382 9.254 48.25 9.944 48.25 10.7C48.25 11.456 48.382 12.152 48.646 12.788C48.922 13.412 49.3 13.964 49.78 14.444C50.26 14.912 50.824 15.278 51.472 15.542C52.12 15.794 52.822 15.92 53.578 15.92C54.298 15.92 54.97 15.8 55.594 15.56C56.218 15.32 56.788 14.936 57.304 14.408L58.15 15.254C57.598 15.866 56.92 16.328 56.116 16.64C55.312 16.952 54.448 17.108 53.524 17.108ZM60.7195 17V7.55H61.9435V10.124L61.8175 9.674C62.0815 8.954 62.5255 8.408 63.1495 8.036C63.7735 7.652 64.5475 7.46 65.4715 7.46V8.702C65.4235 8.702 65.3755 8.702 65.3275 8.702C65.2795 8.69 65.2315 8.684 65.1835 8.684C64.1875 8.684 63.4075 8.99 62.8435 9.602C62.2795 10.202 61.9975 11.06 61.9975 12.176V17H60.7195ZM71.5676 17.09C70.6556 17.09 69.8336 16.886 69.1016 16.478C68.3816 16.058 67.8116 15.488 67.3916 14.768C66.9716 14.036 66.7616 13.202 66.7616 12.266C66.7616 11.318 66.9716 10.484 67.3916 9.764C67.8116 9.044 68.3816 8.48 69.1016 8.072C69.8216 7.664 70.6436 7.46 71.5676 7.46C72.5036 7.46 73.3316 7.664 74.0516 8.072C74.7836 8.48 75.3536 9.044 75.7616 9.764C76.1816 10.484 76.3916 11.318 76.3916 12.266C76.3916 13.202 76.1816 14.036 75.7616 14.768C75.3536 15.488 74.7836 16.058 74.0516 16.478C73.3196 16.886 72.4916 17.09 71.5676 17.09ZM71.5676 15.956C72.2516 15.956 72.8576 15.806 73.3856 15.506C73.9136 15.194 74.3276 14.762 74.6276 14.21C74.9396 13.646 75.0956 12.998 75.0956 12.266C75.0956 11.522 74.9396 10.874 74.6276 10.322C74.3276 9.77 73.9136 9.344 73.3856 9.044C72.8576 8.732 72.2576 8.576 71.5856 8.576C70.9136 8.576 70.3136 8.732 69.7856 9.044C69.2576 9.344 68.8376 9.77 68.5256 10.322C68.2136 10.874 68.0576 11.522 68.0576 12.266C68.0576 12.998 68.2136 13.646 68.5256 14.21C68.8376 14.762 69.2576 15.194 69.7856 15.506C70.3136 15.806 70.9076 15.956 71.5676 15.956ZM80.6631 17L77.0991 7.55H78.3231L81.5631 16.316H81.0051L84.3351 7.55H85.4331L88.7271 16.316H88.1691L91.4631 7.55H92.6331L89.0511 17H87.8451L84.6771 8.756H85.0551L81.8691 17H80.6631ZM98.0557 17.09C97.1557 17.09 96.3457 16.886 95.6257 16.478C94.9177 16.07 94.3597 15.506 93.9517 14.786C93.5437 14.054 93.3397 13.214 93.3397 12.266C93.3397 11.306 93.5437 10.466 93.9517 9.746C94.3597 9.026 94.9177 8.468 95.6257 8.072C96.3457 7.664 97.1557 7.46 98.0557 7.46C98.8837 7.46 99.6217 7.646 100.27 8.018C100.93 8.39 101.452 8.936 101.836 9.656C102.232 10.364 102.43 11.234 102.43 12.266C102.43 13.286 102.238 14.156 101.854 14.876C101.47 15.596 100.948 16.148 100.288 16.532C99.6397 16.904 98.8957 17.09 98.0557 17.09ZM98.1457 15.956C98.8177 15.956 99.4177 15.806 99.9457 15.506C100.486 15.194 100.906 14.762 101.206 14.21C101.518 13.646 101.674 12.998 101.674 12.266C101.674 11.522 101.518 10.874 101.206 10.322C100.906 9.77 100.486 9.344 99.9457 9.044C99.4177 8.732 98.8177 8.576 98.1457 8.576C97.4857 8.576 96.8917 8.732 96.3637 9.044C95.8357 9.344 95.4157 9.77 95.1037 10.322C94.7917 10.874 94.6357 11.522 94.6357 12.266C94.6357 12.998 94.7917 13.646 95.1037 14.21C95.4157 14.762 95.8357 15.194 96.3637 15.506C96.8917 15.806 97.4857 15.956 98.1457 15.956ZM101.71 17V14.156L101.836 12.248L101.656 10.34V3.644H102.934V17H101.71ZM106.493 17V3.644H107.771V17H106.493ZM111.399 20.582C110.955 20.582 110.529 20.51 110.121 20.366C109.725 20.222 109.383 20.006 109.095 19.718L109.689 18.764C109.929 18.992 110.187 19.166 110.463 19.286C110.751 19.418 111.069 19.484 111.417 19.484C111.837 19.484 112.197 19.364 112.497 19.124C112.809 18.896 113.103 18.488 113.379 17.9L113.991 16.514L114.135 16.316L118.023 7.55H119.283L114.549 18.134C114.285 18.746 113.991 19.232 113.667 19.592C113.355 19.952 113.013 20.204 112.641 20.348C112.269 20.504 111.855 20.582 111.399 20.582ZM113.919 17.27L109.563 7.55H110.895L114.747 16.226L113.919 17.27ZM124.334 17.09C123.446 17.09 122.762 16.85 122.282 16.37C121.802 15.89 121.562 15.212 121.562 14.336V5.462H122.84V14.264C122.84 14.816 122.978 15.242 123.254 15.542C123.542 15.842 123.95 15.992 124.478 15.992C125.042 15.992 125.51 15.83 125.882 15.506L126.332 16.424C126.08 16.652 125.774 16.82 125.414 16.928C125.066 17.036 124.706 17.09 124.334 17.09ZM119.87 8.612V7.55H125.72V8.612H119.87ZM128.659 17V7.55H129.937V17H128.659ZM129.307 5.462C129.043 5.462 128.821 5.372 128.641 5.192C128.461 5.012 128.371 4.796 128.371 4.544C128.371 4.292 128.461 4.082 128.641 3.914C128.821 3.734 129.043 3.644 129.307 3.644C129.571 3.644 129.793 3.728 129.973 3.896C130.153 4.064 130.243 4.274 130.243 4.526C130.243 4.79 130.153 5.012 129.973 5.192C129.805 5.372 129.583 5.462 129.307 5.462ZM137.417 17.09C136.481 17.09 135.641 16.886 134.897 16.478C134.165 16.058 133.589 15.488 133.169 14.768C132.749 14.036 132.539 13.202 132.539 12.266C132.539 11.318 132.749 10.484 133.169 9.764C133.589 9.044 134.165 8.48 134.897 8.072C135.641 7.664 136.481 7.46 137.417 7.46C138.221 7.46 138.947 7.616 139.595 7.928C140.243 8.24 140.753 8.708 141.125 9.332L140.171 9.98C139.847 9.5 139.445 9.146 138.965 8.918C138.485 8.69 137.963 8.576 137.399 8.576C136.727 8.576 136.121 8.732 135.581 9.044C135.041 9.344 134.615 9.77 134.303 10.322C133.991 10.874 133.835 11.522 133.835 12.266C133.835 13.01 133.991 13.658 134.303 14.21C134.615 14.762 135.041 15.194 135.581 15.506C136.121 15.806 136.727 15.956 137.399 15.956C137.963 15.956 138.485 15.842 138.965 15.614C139.445 15.386 139.847 15.038 140.171 14.57L141.125 15.218C140.753 15.83 140.243 16.298 139.595 16.622C138.947 16.934 138.221 17.09 137.417 17.09ZM146.174 17.09C145.394 17.09 144.656 16.982 143.96 16.766C143.264 16.538 142.718 16.256 142.322 15.92L142.898 14.912C143.282 15.2 143.774 15.452 144.374 15.668C144.974 15.872 145.604 15.974 146.264 15.974C147.164 15.974 147.812 15.836 148.208 15.56C148.604 15.272 148.802 14.894 148.802 14.426C148.802 14.078 148.688 13.808 148.46 13.616C148.244 13.412 147.956 13.262 147.596 13.166C147.236 13.058 146.834 12.968 146.39 12.896C145.946 12.824 145.502 12.74 145.058 12.644C144.626 12.548 144.23 12.41 143.87 12.23C143.51 12.038 143.216 11.78 142.988 11.456C142.772 11.132 142.664 10.7 142.664 10.16C142.664 9.644 142.808 9.182 143.096 8.774C143.384 8.366 143.804 8.048 144.356 7.82C144.92 7.58 145.604 7.46 146.408 7.46C147.02 7.46 147.632 7.544 148.244 7.712C148.856 7.868 149.36 8.078 149.756 8.342L149.198 9.368C148.778 9.08 148.328 8.876 147.848 8.756C147.368 8.624 146.888 8.558 146.408 8.558C145.556 8.558 144.926 8.708 144.518 9.008C144.122 9.296 143.924 9.668 143.924 10.124C143.924 10.484 144.032 10.766 144.248 10.97C144.476 11.174 144.77 11.336 145.13 11.456C145.502 11.564 145.904 11.654 146.336 11.726C146.78 11.798 147.218 11.888 147.65 11.996C148.094 12.092 148.496 12.23 148.856 12.41C149.228 12.578 149.522 12.824 149.738 13.148C149.966 13.46 150.08 13.874 150.08 14.39C150.08 14.942 149.924 15.422 149.612 15.83C149.312 16.226 148.868 16.538 148.28 16.766C147.704 16.982 147.002 17.09 146.174 17.09Z" fill="#A5A6A9"/>
<path d="M51.852 37.084C51.1147 37.084 50.4333 36.9627 49.808 36.72C49.1827 36.468 48.6413 36.118 48.184 35.67C47.7267 35.222 47.3673 34.6947 47.106 34.088C46.854 33.4813 46.728 32.8187 46.728 32.1C46.728 31.3813 46.854 30.7187 47.106 30.112C47.3673 29.5053 47.7267 28.978 48.184 28.53C48.6507 28.082 49.1967 27.7367 49.822 27.494C50.4473 27.242 51.1287 27.116 51.866 27.116C52.5753 27.116 53.2427 27.2373 53.868 27.48C54.4933 27.7133 55.0207 28.068 55.45 28.544L54.792 29.202C54.3907 28.7913 53.9473 28.4973 53.462 28.32C52.9767 28.1333 52.454 28.04 51.894 28.04C51.306 28.04 50.76 28.1427 50.256 28.348C49.752 28.544 49.3133 28.8287 48.94 29.202C48.5667 29.566 48.2727 29.9953 48.058 30.49C47.8527 30.9753 47.75 31.512 47.75 32.1C47.75 32.688 47.8527 33.2293 48.058 33.724C48.2727 34.2093 48.5667 34.6387 48.94 35.012C49.3133 35.376 49.752 35.6607 50.256 35.866C50.76 36.062 51.306 36.16 51.894 36.16C52.454 36.16 52.9767 36.0667 53.462 35.88C53.9473 35.6933 54.3907 35.3947 54.792 34.984L55.45 35.642C55.0207 36.118 54.4933 36.4773 53.868 36.72C53.2427 36.9627 52.5707 37.084 51.852 37.084ZM57.4485 37V29.65H58.4005V31.652L58.3025 31.302C58.5078 30.742 58.8532 30.3173 59.3385 30.028C59.8238 29.7293 60.4258 29.58 61.1445 29.58V30.546C61.1072 30.546 61.0698 30.546 61.0325 30.546C60.9952 30.5367 60.9578 30.532 60.9205 30.532C60.1458 30.532 59.5392 30.77 59.1005 31.246C58.6618 31.7127 58.4425 32.38 58.4425 33.248V37H57.4485ZM65.8859 37.07C65.1766 37.07 64.5372 36.9113 63.9679 36.594C63.4079 36.2673 62.9646 35.824 62.6379 35.264C62.3112 34.6947 62.1479 34.046 62.1479 33.318C62.1479 32.5807 62.3112 31.932 62.6379 31.372C62.9646 30.812 63.4079 30.3733 63.9679 30.056C64.5279 29.7387 65.1672 29.58 65.8859 29.58C66.6139 29.58 67.2579 29.7387 67.8179 30.056C68.3872 30.3733 68.8306 30.812 69.1479 31.372C69.4746 31.932 69.6379 32.5807 69.6379 33.318C69.6379 34.046 69.4746 34.6947 69.1479 35.264C68.8306 35.824 68.3872 36.2673 67.8179 36.594C67.2486 36.9113 66.6046 37.07 65.8859 37.07ZM65.8859 36.188C66.4179 36.188 66.8892 36.0713 67.2999 35.838C67.7106 35.5953 68.0326 35.2593 68.2659 34.83C68.5086 34.3913 68.6299 33.8873 68.6299 33.318C68.6299 32.7393 68.5086 32.2353 68.2659 31.806C68.0326 31.3767 67.7106 31.0453 67.2999 30.812C66.8892 30.5693 66.4226 30.448 65.8999 30.448C65.3772 30.448 64.9106 30.5693 64.4999 30.812C64.0892 31.0453 63.7626 31.3767 63.5199 31.806C63.2772 32.2353 63.1559 32.7393 63.1559 33.318C63.1559 33.8873 63.2772 34.3913 63.5199 34.83C63.7626 35.2593 64.0892 35.5953 64.4999 35.838C64.9106 36.0713 65.3726 36.188 65.8859 36.188ZM72.9602 37L70.1882 29.65H71.1402L73.6602 36.468H73.2262L75.8162 29.65H76.6702L79.2322 36.468H78.7982L81.3602 29.65H82.2702L79.4842 37H78.5462L76.0822 30.588H76.3762L73.8982 37H72.9602ZM86.4878 37.07C85.7878 37.07 85.1578 36.9113 84.5978 36.594C84.0471 36.2767 83.6131 35.838 83.2958 35.278C82.9784 34.7087 82.8198 34.0553 82.8198 33.318C82.8198 32.5713 82.9784 31.918 83.2958 31.358C83.6131 30.798 84.0471 30.364 84.5978 30.056C85.1578 29.7387 85.7878 29.58 86.4878 29.58C87.1318 29.58 87.7058 29.7247 88.2098 30.014C88.7231 30.3033 89.1291 30.728 89.4278 31.288C89.7358 31.8387 89.8898 32.5153 89.8898 33.318C89.8898 34.1113 89.7404 34.788 89.4418 35.348C89.1431 35.908 88.7371 36.3373 88.2238 36.636C87.7198 36.9253 87.1411 37.07 86.4878 37.07ZM86.5578 36.188C87.0804 36.188 87.5471 36.0713 87.9578 35.838C88.3778 35.5953 88.7044 35.2593 88.9378 34.83C89.1804 34.3913 89.3018 33.8873 89.3018 33.318C89.3018 32.7393 89.1804 32.2353 88.9378 31.806C88.7044 31.3767 88.3778 31.0453 87.9578 30.812C87.5471 30.5693 87.0804 30.448 86.5578 30.448C86.0444 30.448 85.5824 30.5693 85.1718 30.812C84.7611 31.0453 84.4344 31.3767 84.1918 31.806C83.9491 32.2353 83.8278 32.7393 83.8278 33.318C83.8278 33.8873 83.9491 34.3913 84.1918 34.83C84.4344 35.2593 84.7611 35.5953 85.1718 35.838C85.5824 36.0713 86.0444 36.188 86.5578 36.188ZM89.3298 37V34.788L89.4278 33.304L89.2878 31.82V26.612H90.2818V37H89.3298ZM93.2181 37V28.726C93.2181 28.0727 93.4094 27.5453 93.7921 27.144C94.1747 26.7427 94.7254 26.542 95.4441 26.542C95.7241 26.542 95.9947 26.5793 96.2561 26.654C96.5174 26.7287 96.7367 26.8453 96.9141 27.004L96.5781 27.746C96.4381 27.6247 96.2747 27.536 96.0881 27.48C95.9014 27.4147 95.7007 27.382 95.4861 27.382C95.0661 27.382 94.7441 27.4987 94.5201 27.732C94.2961 27.9653 94.1841 28.3107 94.1841 28.768V29.888L94.2121 30.35V37H93.2181ZM91.9021 30.476V29.65H96.4521V30.476H91.9021ZM100.832 37.07C100.207 37.07 99.6609 36.9533 99.1942 36.72C98.7275 36.4867 98.3635 36.1367 98.1022 35.67C97.8502 35.2033 97.7242 34.62 97.7242 33.92V29.65H98.7182V33.808C98.7182 34.592 98.9095 35.1847 99.2922 35.586C99.6842 35.978 100.23 36.174 100.93 36.174C101.444 36.174 101.887 36.0713 102.26 35.866C102.643 35.6513 102.932 35.3433 103.128 34.942C103.334 34.5407 103.436 34.06 103.436 33.5V29.65H104.43V37H103.478V34.984L103.632 35.348C103.399 35.8893 103.035 36.314 102.54 36.622C102.055 36.9207 101.486 37.07 100.832 37.07ZM110.952 29.58C111.55 29.58 112.072 29.6967 112.52 29.93C112.978 30.154 113.332 30.4993 113.584 30.966C113.846 31.4327 113.976 32.0207 113.976 32.73V37H112.982V32.828C112.982 32.0533 112.786 31.47 112.394 31.078C112.012 30.6767 111.47 30.476 110.77 30.476C110.248 30.476 109.79 30.5833 109.398 30.798C109.016 31.0033 108.717 31.3067 108.502 31.708C108.297 32.1 108.194 32.576 108.194 33.136V37H107.2V29.65H108.152V31.666L107.998 31.288C108.232 30.756 108.605 30.3407 109.118 30.042C109.632 29.734 110.243 29.58 110.952 29.58ZM119.587 37.07C118.887 37.07 118.257 36.9113 117.697 36.594C117.147 36.2767 116.713 35.838 116.395 35.278C116.078 34.7087 115.919 34.0553 115.919 33.318C115.919 32.5713 116.078 31.918 116.395 31.358C116.713 30.798 117.147 30.364 117.697 30.056C118.257 29.7387 118.887 29.58 119.587 29.58C120.231 29.58 120.805 29.7247 121.309 30.014C121.823 30.3033 122.229 30.728 122.527 31.288C122.835 31.8387 122.989 32.5153 122.989 33.318C122.989 34.1113 122.84 34.788 122.541 35.348C122.243 35.908 121.837 36.3373 121.323 36.636C120.819 36.9253 120.241 37.07 119.587 37.07ZM119.657 36.188C120.18 36.188 120.647 36.0713 121.057 35.838C121.477 35.5953 121.804 35.2593 122.037 34.83C122.28 34.3913 122.401 33.8873 122.401 33.318C122.401 32.7393 122.28 32.2353 122.037 31.806C121.804 31.3767 121.477 31.0453 121.057 30.812C120.647 30.5693 120.18 30.448 119.657 30.448C119.144 30.448 118.682 30.5693 118.271 30.812C117.861 31.0453 117.534 31.3767 117.291 31.806C117.049 32.2353 116.927 32.7393 116.927 33.318C116.927 33.8873 117.049 34.3913 117.291 34.83C117.534 35.2593 117.861 35.5953 118.271 35.838C118.682 36.0713 119.144 36.188 119.657 36.188ZM122.429 37V34.788L122.527 33.304L122.387 31.82V26.612H123.381V37H122.429ZM126.15 37V29.65H127.144V37H126.15ZM126.654 28.026C126.448 28.026 126.276 27.956 126.136 27.816C125.996 27.676 125.926 27.508 125.926 27.312C125.926 27.116 125.996 26.9527 126.136 26.822C126.276 26.682 126.448 26.612 126.654 26.612C126.859 26.612 127.032 26.6773 127.172 26.808C127.312 26.9387 127.382 27.102 127.382 27.298C127.382 27.5033 127.312 27.676 127.172 27.816C127.041 27.956 126.868 28.026 126.654 28.026ZM133.661 29.58C134.259 29.58 134.781 29.6967 135.229 29.93C135.687 30.154 136.041 30.4993 136.293 30.966C136.555 31.4327 136.685 32.0207 136.685 32.73V37H135.691V32.828C135.691 32.0533 135.495 31.47 135.103 31.078C134.721 30.6767 134.179 30.476 133.479 30.476C132.957 30.476 132.499 30.5833 132.107 30.798C131.725 31.0033 131.426 31.3067 131.211 31.708C131.006 32.1 130.903 32.576 130.903 33.136V37H129.909V29.65H130.861V31.666L130.707 31.288C130.941 30.756 131.314 30.3407 131.827 30.042C132.341 29.734 132.952 29.58 133.661 29.58ZM142.506 39.786C141.834 39.786 141.19 39.688 140.574 39.492C139.958 39.296 139.459 39.016 139.076 38.652L139.58 37.896C139.926 38.204 140.35 38.4467 140.854 38.624C141.368 38.8107 141.909 38.904 142.478 38.904C143.412 38.904 144.098 38.6847 144.536 38.246C144.975 37.8167 145.194 37.1447 145.194 36.23V34.396L145.334 33.136L145.236 31.876V29.65H146.188V36.104C146.188 37.3733 145.876 38.302 145.25 38.89C144.634 39.4873 143.72 39.786 142.506 39.786ZM142.324 36.72C141.624 36.72 140.994 36.5707 140.434 36.272C139.874 35.964 139.431 35.5393 139.104 34.998C138.787 34.4567 138.628 33.836 138.628 33.136C138.628 32.436 138.787 31.82 139.104 31.288C139.431 30.7467 139.874 30.3267 140.434 30.028C140.994 29.7293 141.624 29.58 142.324 29.58C142.978 29.58 143.566 29.7153 144.088 29.986C144.611 30.2567 145.026 30.658 145.334 31.19C145.642 31.722 145.796 32.3707 145.796 33.136C145.796 33.9013 145.642 34.55 145.334 35.082C145.026 35.614 144.611 36.02 144.088 36.3C143.566 36.58 142.978 36.72 142.324 36.72ZM142.422 35.838C142.964 35.838 143.444 35.726 143.864 35.502C144.284 35.2687 144.616 34.9513 144.858 34.55C145.101 34.1393 145.222 33.668 145.222 33.136C145.222 32.604 145.101 32.1373 144.858 31.736C144.616 31.3347 144.284 31.022 143.864 30.798C143.444 30.5647 142.964 30.448 142.422 30.448C141.89 30.448 141.41 30.5647 140.98 30.798C140.56 31.022 140.229 31.3347 139.986 31.736C139.753 32.1373 139.636 32.604 139.636 33.136C139.636 33.668 139.753 34.1393 139.986 34.55C140.229 34.9513 140.56 35.2687 140.98 35.502C141.41 35.726 141.89 35.838 142.422 35.838ZM155.208 37.084C154.574 37.084 154.009 36.9813 153.514 36.776C153.02 36.5613 152.628 36.2673 152.338 35.894C152.058 35.5207 151.918 35.0867 151.918 34.592C151.918 34.172 152.012 33.7893 152.198 33.444C152.385 33.0893 152.684 32.744 153.094 32.408C153.514 32.0627 154.07 31.7033 154.76 31.33C155.348 31.0033 155.806 30.7233 156.132 30.49C156.468 30.2473 156.706 30.0187 156.846 29.804C156.986 29.58 157.056 29.342 157.056 29.09C157.056 28.726 156.93 28.432 156.678 28.208C156.436 27.984 156.086 27.872 155.628 27.872C155.134 27.872 154.751 27.998 154.48 28.25C154.21 28.4927 154.074 28.81 154.074 29.202C154.074 29.398 154.102 29.5847 154.158 29.762C154.224 29.9393 154.34 30.1353 154.508 30.35C154.686 30.5647 154.928 30.8353 155.236 31.162L160.416 36.496L159.842 37.154L154.438 31.596C154.112 31.2507 153.85 30.952 153.654 30.7C153.468 30.4387 153.337 30.1913 153.262 29.958C153.188 29.7247 153.15 29.4773 153.15 29.216C153.15 28.796 153.248 28.432 153.444 28.124C153.65 27.8067 153.939 27.564 154.312 27.396C154.686 27.2187 155.124 27.13 155.628 27.13C156.086 27.13 156.482 27.2093 156.818 27.368C157.164 27.5173 157.43 27.7367 157.616 28.026C157.812 28.3153 157.91 28.6653 157.91 29.076C157.91 29.4307 157.822 29.762 157.644 30.07C157.476 30.378 157.196 30.6813 156.804 30.98C156.412 31.2693 155.88 31.596 155.208 31.96C154.62 32.2867 154.154 32.5853 153.808 32.856C153.472 33.1267 153.234 33.3927 153.094 33.654C152.954 33.906 152.884 34.186 152.884 34.494C152.884 34.8487 152.982 35.1613 153.178 35.432C153.384 35.6933 153.664 35.8987 154.018 36.048C154.382 36.188 154.798 36.258 155.264 36.258C155.918 36.258 156.501 36.1227 157.014 35.852C157.528 35.5813 157.957 35.1707 158.302 34.62C158.657 34.0693 158.914 33.3787 159.072 32.548L159.87 32.8C159.693 33.7333 159.39 34.5173 158.96 35.152C158.531 35.7867 157.999 36.2673 157.364 36.594C156.73 36.9207 156.011 37.084 155.208 37.084ZM164.29 37L168.77 27.2H169.792L174.272 37H173.18L169.064 27.802H169.484L165.368 37H164.29ZM166.054 34.382L166.362 33.542H172.06L172.368 34.382H166.054ZM179.435 29.58C180.032 29.58 180.555 29.6967 181.003 29.93C181.46 30.154 181.815 30.4993 182.067 30.966C182.328 31.4327 182.459 32.0207 182.459 32.73V37H181.465V32.828C181.465 32.0533 181.269 31.47 180.877 31.078C180.494 30.6767 179.953 30.476 179.253 30.476C178.73 30.476 178.273 30.5833 177.881 30.798C177.498 31.0033 177.2 31.3067 176.985 31.708C176.78 32.1 176.677 32.576 176.677 33.136V37H175.683V29.65H176.635V31.666L176.481 31.288C176.714 30.756 177.088 30.3407 177.601 30.042C178.114 29.734 178.726 29.58 179.435 29.58ZM189.75 37V35.376L189.708 35.11V32.394C189.708 31.7687 189.53 31.288 189.176 30.952C188.83 30.616 188.312 30.448 187.622 30.448C187.146 30.448 186.693 30.5273 186.264 30.686C185.834 30.8447 185.47 31.0547 185.172 31.316L184.724 30.574C185.097 30.2567 185.545 30.014 186.068 29.846C186.59 29.6687 187.141 29.58 187.72 29.58C188.672 29.58 189.404 29.818 189.918 30.294C190.44 30.7607 190.702 31.4747 190.702 32.436V37H189.75ZM187.216 37.07C186.665 37.07 186.184 36.9813 185.774 36.804C185.372 36.6173 185.064 36.3653 184.85 36.048C184.635 35.7213 184.528 35.348 184.528 34.928C184.528 34.5453 184.616 34.2 184.794 33.892C184.98 33.5747 185.279 33.3227 185.69 33.136C186.11 32.94 186.67 32.842 187.37 32.842H189.904V33.584H187.398C186.688 33.584 186.194 33.71 185.914 33.962C185.643 34.214 185.508 34.5267 185.508 34.9C185.508 35.32 185.671 35.656 185.998 35.908C186.324 36.16 186.782 36.286 187.37 36.286C187.93 36.286 188.41 36.16 188.812 35.908C189.222 35.6467 189.521 35.2733 189.708 34.788L189.932 35.474C189.745 35.9593 189.418 36.3467 188.952 36.636C188.494 36.9253 187.916 37.07 187.216 37.07ZM193.402 37V26.612H194.396V37H193.402ZM197.217 39.786C196.872 39.786 196.541 39.73 196.223 39.618C195.915 39.506 195.649 39.338 195.425 39.114L195.887 38.372C196.074 38.5493 196.275 38.6847 196.489 38.778C196.713 38.8807 196.961 38.932 197.231 38.932C197.558 38.932 197.838 38.8387 198.071 38.652C198.314 38.4747 198.543 38.1573 198.757 37.7L199.233 36.622L199.345 36.468L202.369 29.65H203.349L199.667 37.882C199.462 38.358 199.233 38.736 198.981 39.016C198.739 39.296 198.473 39.492 198.183 39.604C197.894 39.7253 197.572 39.786 197.217 39.786ZM199.177 37.21L195.789 29.65H196.825L199.821 36.398L199.177 37.21ZM207.278 37.07C206.588 37.07 206.056 36.8833 205.682 36.51C205.309 36.1367 205.122 35.6093 205.122 34.928V28.026H206.116V34.872C206.116 35.3013 206.224 35.6327 206.438 35.866C206.662 36.0993 206.98 36.216 207.39 36.216C207.829 36.216 208.193 36.09 208.482 35.838L208.832 36.552C208.636 36.7293 208.398 36.86 208.118 36.944C207.848 37.028 207.568 37.07 207.278 37.07ZM203.806 30.476V29.65H208.356V30.476H203.806ZM210.642 37V29.65H211.636V37H210.642ZM211.146 28.026C210.941 28.026 210.768 27.956 210.628 27.816C210.488 27.676 210.418 27.508 210.418 27.312C210.418 27.116 210.488 26.9527 210.628 26.822C210.768 26.682 210.941 26.612 211.146 26.612C211.351 26.612 211.524 26.6773 211.664 26.808C211.804 26.9387 211.874 27.102 211.874 27.298C211.874 27.5033 211.804 27.676 211.664 27.816C211.533 27.956 211.361 28.026 211.146 28.026ZM217.454 37.07C216.726 37.07 216.072 36.9113 215.494 36.594C214.924 36.2673 214.476 35.824 214.15 35.264C213.823 34.6947 213.66 34.046 213.66 33.318C213.66 32.5807 213.823 31.932 214.15 31.372C214.476 30.812 214.924 30.3733 215.494 30.056C216.072 29.7387 216.726 29.58 217.454 29.58C218.079 29.58 218.644 29.7013 219.148 29.944C219.652 30.1867 220.048 30.5507 220.338 31.036L219.596 31.54C219.344 31.1667 219.031 30.8913 218.658 30.714C218.284 30.5367 217.878 30.448 217.44 30.448C216.917 30.448 216.446 30.5693 216.026 30.812C215.606 31.0453 215.274 31.3767 215.032 31.806C214.789 32.2353 214.668 32.7393 214.668 33.318C214.668 33.8967 214.789 34.4007 215.032 34.83C215.274 35.2593 215.606 35.5953 216.026 35.838C216.446 36.0713 216.917 36.188 217.44 36.188C217.878 36.188 218.284 36.0993 218.658 35.922C219.031 35.7447 219.344 35.474 219.596 35.11L220.338 35.614C220.048 36.09 219.652 36.454 219.148 36.706C218.644 36.9487 218.079 37.07 217.454 37.07ZM224.264 37.07C223.658 37.07 223.084 36.986 222.542 36.818C222.001 36.6407 221.576 36.4213 221.268 36.16L221.716 35.376C222.015 35.6 222.398 35.796 222.864 35.964C223.331 36.1227 223.821 36.202 224.334 36.202C225.034 36.202 225.538 36.0947 225.846 35.88C226.154 35.656 226.308 35.362 226.308 34.998C226.308 34.7273 226.22 34.5173 226.042 34.368C225.874 34.2093 225.65 34.0927 225.37 34.018C225.09 33.934 224.778 33.864 224.432 33.808C224.087 33.752 223.742 33.6867 223.396 33.612C223.06 33.5373 222.752 33.43 222.472 33.29C222.192 33.1407 221.964 32.94 221.786 32.688C221.618 32.436 221.534 32.1 221.534 31.68C221.534 31.2787 221.646 30.9193 221.87 30.602C222.094 30.2847 222.421 30.0373 222.85 29.86C223.289 29.6733 223.821 29.58 224.446 29.58C224.922 29.58 225.398 29.6453 225.874 29.776C226.35 29.8973 226.742 30.0607 227.05 30.266L226.616 31.064C226.29 30.84 225.94 30.6813 225.566 30.588C225.193 30.4853 224.82 30.434 224.446 30.434C223.784 30.434 223.294 30.5507 222.976 30.784C222.668 31.008 222.514 31.2973 222.514 31.652C222.514 31.932 222.598 32.1513 222.766 32.31C222.944 32.4687 223.172 32.5947 223.452 32.688C223.742 32.772 224.054 32.842 224.39 32.898C224.736 32.954 225.076 33.024 225.412 33.108C225.758 33.1827 226.07 33.29 226.35 33.43C226.64 33.5607 226.868 33.752 227.036 34.004C227.214 34.2467 227.302 34.5687 227.302 34.97C227.302 35.3993 227.181 35.7727 226.938 36.09C226.705 36.398 226.36 36.6407 225.902 36.818C225.454 36.986 224.908 37.07 224.264 37.07Z" fill="#A5A6A9"/>
<rect width="40" height="40" rx="20" fill="#17D989"/>
<path d="M8.516 24.62C7.876 24.62 7.28 24.516 6.728 24.308C6.184 24.092 5.708 23.792 5.3 23.408C4.9 23.016 4.588 22.556 4.364 22.028C4.14 21.5 4.028 20.924 4.028 20.3C4.028 19.676 4.14 19.1 4.364 18.572C4.588 18.044 4.904 17.588 5.312 17.204C5.72 16.812 6.196 16.512 6.74 16.304C7.284 16.088 7.88 15.98 8.528 15.98C9.216 15.98 9.844 16.1 10.412 16.34C10.98 16.572 11.46 16.92 11.852 17.384L10.844 18.332C10.54 18.004 10.2 17.76 9.824 17.6C9.448 17.432 9.04 17.348 8.6 17.348C8.16 17.348 7.756 17.42 7.388 17.564C7.028 17.708 6.712 17.912 6.44 18.176C6.176 18.44 5.968 18.752 5.816 19.112C5.672 19.472 5.6 19.868 5.6 20.3C5.6 20.732 5.672 21.128 5.816 21.488C5.968 21.848 6.176 22.16 6.44 22.424C6.712 22.688 7.028 22.892 7.388 23.036C7.756 23.18 8.16 23.252 8.6 23.252C9.04 23.252 9.448 23.172 9.824 23.012C10.2 22.844 10.54 22.592 10.844 22.256L11.852 23.216C11.46 23.672 10.98 24.02 10.412 24.26C9.844 24.5 9.212 24.62 8.516 24.62ZM19.0872 24.62C18.5032 24.62 17.9792 24.524 17.5152 24.332C17.0512 24.14 16.6872 23.876 16.4232 23.54C16.1592 23.204 16.0272 22.816 16.0272 22.376C16.0272 21.976 16.1152 21.616 16.2912 21.296C16.4672 20.976 16.7472 20.672 17.1312 20.384C17.5152 20.088 18.0072 19.792 18.6072 19.496C19.0792 19.264 19.4472 19.06 19.7112 18.884C19.9832 18.708 20.1712 18.54 20.2752 18.38C20.3872 18.22 20.4432 18.052 20.4432 17.876C20.4432 17.636 20.3592 17.444 20.1912 17.3C20.0232 17.148 19.7832 17.072 19.4712 17.072C19.1352 17.072 18.8712 17.156 18.6792 17.324C18.4952 17.484 18.4032 17.696 18.4032 17.96C18.4032 18.096 18.4272 18.228 18.4752 18.356C18.5312 18.484 18.6272 18.628 18.7632 18.788C18.8992 18.948 19.0952 19.152 19.3512 19.4L23.7912 23.66L22.9632 24.632L18.1632 20.024C17.8912 19.76 17.6712 19.516 17.5032 19.292C17.3352 19.068 17.2152 18.852 17.1432 18.644C17.0712 18.428 17.0352 18.208 17.0352 17.984C17.0352 17.592 17.1352 17.248 17.3352 16.952C17.5352 16.648 17.8192 16.416 18.1872 16.256C18.5552 16.088 18.9832 16.004 19.4712 16.004C19.9272 16.004 20.3192 16.08 20.6472 16.232C20.9832 16.376 21.2432 16.588 21.4272 16.868C21.6192 17.14 21.7152 17.468 21.7152 17.852C21.7152 18.188 21.6312 18.5 21.4632 18.788C21.2952 19.068 21.0312 19.336 20.6712 19.592C20.3192 19.848 19.8472 20.116 19.2552 20.396C18.8152 20.612 18.4672 20.816 18.2112 21.008C17.9552 21.2 17.7712 21.392 17.6592 21.584C17.5472 21.776 17.4912 21.988 17.4912 22.22C17.4912 22.452 17.5592 22.656 17.6952 22.832C17.8392 23.008 18.0392 23.148 18.2952 23.252C18.5512 23.348 18.8512 23.396 19.1952 23.396C19.7072 23.396 20.1712 23.284 20.5872 23.06C21.0112 22.828 21.3672 22.484 21.6552 22.028C21.9432 21.572 22.1512 21.008 22.2792 20.336L23.4912 20.732C23.3232 21.54 23.0312 22.236 22.6152 22.82C22.2072 23.396 21.7032 23.84 21.1032 24.152C20.5032 24.464 19.8312 24.62 19.0872 24.62ZM27.2642 24.5L31.0442 16.1H32.5802L36.3722 24.5H34.7402L31.4882 16.928H32.1122L28.8722 24.5H27.2642ZM29.0042 22.556L29.4242 21.332H33.9602L34.3802 22.556H29.0042Z" fill="#F0F0F0"/>
</svg>
